<?xml version="1.0" encoding="utf-8"?>
<!-- Generator: Adobe Illustrator 20.1.0, SVG Export Plug-In . SVG Version: 6.00 Build 0)  -->
<svg version="1.1" id="Layer_1" xmlns="http://www.w3.org/2000/svg" xmlns:xlink="http://www.w3.org/1999/xlink" x="0px" y="0px"
	 viewBox="0 0 145 163" style="enable-background:new 0 0 145 163;" xml:space="preserve">
<title>noun_631390_cc</title>
<desc>Created with Sketch.</desc>
<g id="Kiosk">
	<g id="for-export" transform="translate(-1054.000000, -93.000000)">
		<g id="noun_631390_cc" transform="translate(1054.000000, 93.000000)">
			<g id="Group">
				<path id="Shape" d="M88.2,0c-3.4,0-6.7,1.4-9.1,3.8c-2.4,2.4-3.8,5.7-3.8,9.1s1.4,6.7,3.8,9.1c2.4,2.4,5.7,3.8,9.1,3.8
					c7.1,0,12.9-5.8,12.9-12.9S95.4,0,88.2,0L88.2,0z M92.5,28.4c-5.5,0-10,4.3-10.4,9.7l-22.3,6.4c-2.9,0.8-4.5,3.8-3.7,6.7
					c0.4,1.3,1.1,2.3,2.2,3C50.8,73.3,41,85.7,33.6,88.5c-4,1.5-7,1-10.4-2.5c-2.9-2.9-5.8-8.3-8-16.3c3.1-0.4,6.4-1.2,10-2.1
					l7.4,17.6c2.8-1.2,7.3-5,11.7-11.3c1.9-2.7,3.8-6,5.7-9.6L38.2,44.9c-0.4-0.6-1-1.1-1.6-1.6c0.2-5.3-0.1-12.6-2.7-13.2
					c-0.2,0-0.4-0.1-0.5,0v0c-2.6,0.1-5,5.5-6.4,9.3c-3-2.8-6.1-5.1-7.8-4c-2.4,1.5-0.1,7.4,1.6,11.2L1.5,60.5
					c-1.3,1.1-2,2.3-1.1,4.3C1.7,68,4.6,69.6,8.5,70c2.5,9.5,5.8,16.3,10.1,20.6c4.9,4.9,11.4,6.2,17.4,4
					c11.3-4.4,21.4-19.1,29.3-40.3l16.9-4.9v19.4H67c-3.5,0-6.2,2.8-6.2,6.2c0,0.7,0.1,1.3,0.3,1.9l8.8,29.3c1,3.3,4.5,5.2,7.8,4.2
					c3.3-1,5.2-4.5,4.2-7.8l-6.4-21.3h17.2h1.5c5.8,0,10.4-4.6,10.4-10.4v-32c0-5.8-4.6-10.4-10.4-10.4L92.5,28.4L92.5,28.4z
					 M108.7,73.6c-1.3,6.9-7.4,12.1-14.6,12.1h-1.5H81.5l4.7,15.5c1.7,5.6-1.6,11.7-7.2,13.4c-5.6,1.7-11.7-1.6-13.4-7.2l-8.5-28
					c-5.6,8.9-12,15.2-19.4,18.2l4.1,9.7v49.3c0,3.5,2.8,6.3,6.3,6.3c3.5,0,6.3-2.8,6.3-6.3v-37.8h37.8h24.3v37.8
					c0,3.5,2.8,6.3,6.3,6.3c3.5,0,6.3-2.8,6.3-6.3V80.3c1.7,0.2,2.9,0.5,3.9,0.8c1.7,0.7,2.4,1.4,3.2,3.4c1.6,4,1.8,13.1,1.8,28.7
					c0,1.8,1.4,3.3,3.2,3.3c1.8,0,3.3-1.5,3.2-3.3c0-15.6,0.3-24.7-2.2-31.1c-1.3-3.2-3.7-5.7-6.8-7c-3.1-1.3-6.6-1.5-11-1.5
					c-0.2,0-0.4,0-0.5,0c-0.3-0.1-0.7-0.1-1-0.1L108.7,73.6L108.7,73.6z"/>
			</g>
		</g>
	</g>
</g>
</svg>
