<?xml version="1.0" encoding="utf-8"?>
<!-- Generator: Adobe Illustrator 20.1.0, SVG Export Plug-In . SVG Version: 6.00 Build 0)  -->
<svg version="1.1" id="Layer_1" xmlns="http://www.w3.org/2000/svg" xmlns:xlink="http://www.w3.org/1999/xlink" x="0px" y="0px"
	 viewBox="0 0 154 143" style="enable-background:new 0 0 154 143;" xml:space="preserve">
<title>noun_565</title>
<desc>Created with Sketch.</desc>
<g id="Kiosk">
	<g id="for-export" transform="translate(-1041.000000, -549.000000)">
		<g id="noun_565" transform="translate(1041.000000, 549.000000)">
			<path id="Shape" d="M90.1,97.3c3.5,0,6.3-2.8,6.3-6.3c0-3.5-2.8-6.3-6.3-6.3s-6.3,2.8-6.3,6.3C83.8,94.5,86.7,97.3,90.1,97.3z
				 M152.7,142.7c-37.4,0.6-76.5-6.6-106.4-30.6l0,0c-0.2-0.2-0.3-0.4-0.3-0.7c0-0.6,0.5-1,1-1l29.5,0c1.4,0,2.6-1.2,2.6-2.6
				c0-1.1-0.5-1.8-1.6-2.4L50.8,92.8c-0.5-0.3-0.8-0.9-0.8-1.5c0-0.5,0.2-0.9,0.5-1.2l0,0c0,0,32.5-28.7,102.2-28V142.7z"/>
			<path id="Shape_1_" d="M138.8,0c-23.1,0.3-45.7,10.1-71,30.9c-1-0.3-3-0.8-3-0.8c-4,0-7.3,3.3-7.3,7.3c0,0,0.3,1.4,0.5,2.2
				c-0.8,0.7-20.5,19.2-20.5,19.2L19.9,75.1c-1.6,1.5-3.7,2.2-6,2.1c-2.2-0.1-4.2-1.1-5.7-2.7C6.9,73,6.2,71,6.2,69
				c0-2.2,0.9-4.5,2.7-6.1c0,0,1.3-0.7,2.3-1.3c0.2,1.5,0.8,6,0.8,6l14.2-18.1l-15.7,5.3c-4.1,1.4-5.8,3.5-5.9,3.6
				c-5.7,5.2-6.2,14.3-0.9,20.2c5.3,5.9,14.5,6.3,20.3,1l0.2-0.2l16.5-15.7c0,0,20.4-19.3,21.1-19.9c1,0.3,2.9,0.7,2.9,0.7
				c4,0,7.3-3.3,7.3-7.3c0,0-0.2-1.1-0.3-1.8c24.5-20.1,46-29.7,67.4-29.9c4.4,0,7.9,0.5,13.7,1.8l1.2,0.3V1.8l-0.8-0.2
				C147.2,0.4,143.3-0.1,138.8,0z"/>
		</g>
	</g>
</g>
</svg>
