<?xml version="1.0" encoding="utf-8"?>
<!-- Generator: Adobe Illustrator 20.1.0, SVG Export Plug-In . SVG Version: 6.00 Build 0)  -->
<svg version="1.1" id="Layer_1" xmlns="http://www.w3.org/2000/svg" xmlns:xlink="http://www.w3.org/1999/xlink" x="0px" y="0px"
	 viewBox="0 0 274 268" style="enable-background:new 0 0 274 268;" xml:space="preserve">
<g>
	<defs>
		<path id="SVGID_1_" d="M252.2,245.2V117.3v-1.5l13-18.2v-7.2h8.4V66v0L138.4,0.4c-1-0.5-2.2-0.5-3.2,0L0,66h0v0v24.3h8.4v7.2
			l12.9,18.2v129.5H0V268l273.6,0v-22.8H252.2z M248.1,111.4h-38.4l-5.8-8.1h49.9L248.1,111.4z M211.5,244.8h7.4V117.3h-7.4V244.8z
			 M117.6,111.4l-5.8-8.1h49.9l-5.8,8.1L117.6,111.4z M119.3,244.8h7.4V117.3h-7.4V244.8z M113.5,115.7v129.5H67.9V115.7l13-18.2
			v-7.2h19.7v7.2L113.5,115.7z M106.4,97.5v-7.2h60.8v7.2L106.4,97.5z M160,115.7l13-18.2v-7.2h19.7v7.2l12.9,18.2v129.5H160V115.7z
			 M259.4,97.5L259.4,97.5h-60.8v-7.2h60.8V97.5z M136.8,7.8l120,58.2L16.9,66L136.8,7.8z M7.4,82.9v-9.5h258.9v9.5L7.4,82.9z
			 M14.3,97.5H75v-7.2H14.3V97.5z M19.7,103.3h49.9l-5.8,8.1H25.5L19.7,103.3z M27.2,244.8h7.4V117.3h-7.4V244.8z M7.4,260.6h258.9
			v-8.1H7.4V260.6z"/>
	</defs>
	<use xlink:href="#SVGID_1_"  style="overflow:visible;fill-rule:evenodd;clip-rule:evenodd;"/>
	<clipPath id="SVGID_2_">
		<use xlink:href="#SVGID_1_"  style="overflow:visible;"/>
	</clipPath>
</g>
</svg>
