<?xml version="1.0" encoding="utf-8"?>
<!-- Generator: Adobe Illustrator 20.1.0, SVG Export Plug-In . SVG Version: 6.00 Build 0)  -->
<svg version="1.1" id="Layer_1" xmlns="http://www.w3.org/2000/svg" xmlns:xlink="http://www.w3.org/1999/xlink" x="0px" y="0px"
	 viewBox="0 0 152 143" style="enable-background:new 0 0 152 143;" xml:space="preserve">
<title>Asset 5</title>
<desc>Created with Sketch.</desc>
<g id="Kiosk">
	<g id="for-export" transform="translate(-1016.000000, -321.000000)">
		<g id="Asset-5" transform="translate(1015.000000, 320.000000)">
			<path id="Shape" d="M152.1,107.1l-1.5-44.6c0-0.5-0.2-1-0.5-1.4L112.4,8.3V8.2c-0.1-0.1-0.2-0.3-0.4-0.4L112,7.8
				c-0.1-0.1-0.3-0.2-0.4-0.3l-0.2-0.1L111,7.3l-0.2-0.1h-0.1L67.5,1c-0.3,0-0.5,0-0.8,0c-0.1,0-0.2,0.1-0.3,0.1
				c-0.2,0-0.3,0.1-0.5,0.2h-0.1L52.5,9.2c-0.6,0.3-1,0.9-1.2,1.5l-9,30.8l-22.2-4.4H20h-0.2h-0.2h-0.3h-0.2l-0.3,0.1l-0.2,0.1
				l-0.2,0.1l-0.2,0.1L18,37.6l-0.2,0.1l-0.2,0.2l-0.1,0.2l-0.1,0.1L3.6,58.8c-0.2,0.3-0.4,0.7-0.4,1.1L1,75.3v0.1
				c0,0.1,0,0.3,0,0.4v0.2c0,0.1,0.1,0.3,0.1,0.4c0,0.1,0,0.1,0.1,0.2c0.1,0.2,0.2,0.3,0.3,0.5l0,0.1l0,0l50.6,65.7
				c0.5,0.6,1.3,1,2.1,1h0.3l16-1.9c0.8-0.1,1.4-0.5,1.9-1.1l7.8-11.7l20.1,12.4c0.4,0.3,0.9,0.4,1.4,0.4h0.2l16.3-1.1
				c0.2,0,0.3-0.1,0.5-0.1h0.2l0,0c0.2-0.1,0.5-0.2,0.7-0.3l0.1-0.1c0.2-0.1,0.3-0.2,0.4-0.4c0.1-0.1,0.1-0.2,0.2-0.2
				c0.1-0.1,0.1-0.2,0.2-0.3v-0.1c0-0.1,0.1-0.2,0.1-0.3c0-0.1,0.1-0.3,0.1-0.5v-0.1l1.6-34.3c0-0.6-0.1-1.2-0.5-1.7L79,43.2
				l-0.1-0.1l-0.2-0.2c-0.1-0.1-0.2-0.2-0.3-0.3l-0.2-0.1c-0.1-0.1-0.2-0.1-0.4-0.2l-0.2-0.1c-0.1,0-0.3-0.1-0.4-0.1h-0.2l-10.9-0.8
				l4.9-3.8l9.2,1.1l43.1,59.8c0.3,0.4,0.6,0.7,1,0.9l24,10.7c0.3,0.1,0.7,0.2,1.1,0.2l0,0c0.8,0,1.5-0.3,2-0.9
				C152.1,108.6,152.3,107.8,152.1,107.1L152.1,107.1z M56,13.2l10.6-6.2l1.1,1.2l4,4.5l-3.8,20.7l-10.3,7.9l-7.3,4.2l-3.2-2.1l0,0
				l0,0L56,13.2z M33.2,63.5L36,49.2l9.1-0.9l1.5,0.9L34.7,65.4L33.2,63.5z M20.5,43l10.3,5.2l-2.7,14.2l-10.4,4.4L6.8,71.5
				l1.5-10.3L20.5,43z M68.7,137l-13.4,1.6L7.7,76.8l20.8-8.9l1.1-0.5l3.1,4l0,0l43.5,54.3L68.7,137z M102.4,136.7l-21.2-13
				L39.8,71.8l19-2.4l54.1,66.6L102.4,136.7z M58.5,64.2l-18,2.3l11.7-15.9l7.6-4.4L71.8,47L58.5,64.2z"/>
		</g>
	</g>
</g>
</svg>
