<?xml version="1.0" encoding="UTF-8"?>
<svg width="245px" height="134px" viewBox="0 0 245 134" version="1.1" xmlns="http://www.w3.org/2000/svg" xmlns:xlink="http://www.w3.org/1999/xlink">
    <!-- Generator: Sketch 48.1 (47250) - http://www.bohemiancoding.com/sketch -->
    <title>Group 50 Copy 3</title>
    <desc>Created with Sketch.</desc>
    <defs></defs>
    <g id="for-export" stroke="none" stroke-width="1" fill="none" fill-rule="evenodd" transform="translate(-1077.000000, -1152.000000)">
        <g id="Group-50-Copy-3" transform="translate(1077.000000, 1152.000000)" fill="#000000">
            <path d="M56.4064473,102.004455 L64.6267382,87.2461818 L76.5624836,87.2461818 L84.7815564,102.004455 L56.4064473,102.004455 Z M108.784611,102.004455 L91.2184291,102.004455 L82.9993564,87.2461818 L96.3396655,87.2461818 C97.0547382,87.2461818 97.6358109,86.7857091 97.6358109,86.2156 L97.6358109,82.4721273 C97.6358109,81.9032364 97.0559564,81.4415455 96.3396655,81.4415455 L44.15032,81.4415455 C43.4364655,81.4415455 42.8566109,81.9032364 42.8566109,82.4721273 L42.8566109,86.2156 C42.8566109,86.7857091 43.4364655,87.2461818 44.15032,87.2461818 L58.1886473,87.2461818 L49.9695745,102.004455 L31.7029382,102.004455 C30.9013745,102.004455 30.2508655,102.656182 30.2508655,103.456527 L30.2508655,108.717855 C30.2508655,109.523073 30.9013745,110.169927 31.7029382,110.169927 L45.4196655,110.169927 L37.5733564,124.2582 L44.0126655,124.2582 L51.8589745,110.169927 L89.3290291,110.169927 L97.17412,124.2582 L103.613429,124.2582 L95.7683382,110.169927 L108.784611,110.169927 C109.591047,110.169927 110.23912,109.523073 110.23912,108.717855 L110.23912,103.456527 C110.23912,102.6574 109.591047,102.004455 108.784611,102.004455 L108.784611,102.004455 Z" id="Fill-42"></path>
            <path d="M133.849067,97.3019073 L157.578031,68.4078527 L138.65114,68.4078527 C137.858104,68.4054164 137.218558,67.7609982 137.220995,66.96918 C137.222213,66.59398 137.369613,66.2333982 137.631522,65.9666164 L163.36074,40.2386164 L150.99254,40.2386164 C150.044795,40.2581073 149.260285,39.5052709 149.240795,38.5563073 C149.232267,38.1372527 149.378449,37.7279436 149.651322,37.40878 L180.422595,1.53941636 C181.867358,-0.150201818 184.407267,-0.347547273 186.096885,1.09599818 C186.256467,1.23243455 186.403867,1.38105273 186.539085,1.53941636 L217.270158,37.3941618 C217.88534,38.1165436 217.798849,39.2007255 217.077685,39.8159073 C216.758522,40.0875618 216.350431,40.2337436 215.930158,40.2252164 L203.602158,40.2252164 L229.330158,65.9532164 C229.885649,66.5184527 229.877122,67.4272164 229.311885,67.9839255 C229.045104,68.2446164 228.68574,68.3944527 228.31054,68.3956709 L209.383649,68.3956709 L233.112613,97.3019073 C233.816722,98.1619436 233.690031,99.4288527 232.829995,100.132962 C232.470631,100.426544 232.021122,100.587344 231.556995,100.587344 L191.529976,100.587344 L191.529976,124.734144 C191.529976,126.956107 189.727067,128.757798 187.505104,128.757798 L179.456576,128.757798 C177.233395,128.757798 175.432922,126.956107 175.432922,124.734144 L175.432922,100.587344 L135.418085,100.587344 C134.307104,100.594653 133.400776,99.7005073 133.394685,98.5883073 C133.391031,98.1193073 133.553049,97.6649255 133.849067,97.3019073" id="Fill-44"></path>
            <path d="M237.136389,133.944938 L7.78808,133.944938 C3.82777091,133.944938 0.621516364,131.780229 0.621516364,129.100229 C0.621516364,126.422665 3.82777091,124.257956 7.78808,124.257956 L237.136389,124.257956 C241.097916,124.257956 244.304171,126.425102 244.304171,129.100229 C244.304171,131.780229 241.097916,133.944938 237.136389,133.944938" id="Fill-46"></path>
        </g>
    </g>
</svg>