<?xml version="1.0" encoding="utf-8"?>
<!-- Generator: Adobe Illustrator 20.1.0, SVG Export Plug-In . SVG Version: 6.00 Build 0)  -->
<svg version="1.1" id="Layer_1" xmlns="http://www.w3.org/2000/svg" xmlns:xlink="http://www.w3.org/1999/xlink" x="0px" y="0px"
	 viewBox="0 0 167 133" style="enable-background:new 0 0 167 133;" xml:space="preserve">
<title>Group 41 Copy 2</title>
<desc>Created with Sketch.</desc>
<g id="for-export" transform="translate(-574.000000, -1153.000000)">
	<g id="Group-41-Copy-2" transform="translate(574.000000, 1153.000000)">
		<path id="Fill-33" d="M38.4,56.6c5.7,0,10.4,4.7,10.4,10.4c0,5.7-4.7,10.4-10.4,10.4S28,72.7,28,67C28,61.2,32.6,56.6,38.4,56.6"
			/>
		<polygon id="Fill-35" points="83.5,0.4 0.2,35.1 0.2,42.1 83.5,14.3 166.7,42.1 166.7,35.1 		"/>
		<polygon id="Fill-37" points="21,63.5 7.1,63.5 7.1,132.9 21,132.9 21,119 145.9,119 145.9,132.9 159.8,132.9 159.8,105.1 
			21,105.1 		"/>
		<path id="Fill-39" d="M55.7,70.4v13.9H41.8c-3.8,0-6.9,3.1-6.9,6.9s3.1,6.9,6.9,6.9h104.1V87.8c0-5.7-5.7-12.9-12.8-15.9L110.1,62
			c-7-3-19-5.5-26.6-5.5H69.6C62,56.6,55.7,62.8,55.7,70.4"/>
	</g>
</g>
</svg>
