<?xml version="1.0" encoding="utf-8"?>
<!-- Generator: Adobe Illustrator 20.1.0, SVG Export Plug-In . SVG Version: 6.00 Build 0)  -->
<svg version="1.1" id="Layer_1" xmlns="http://www.w3.org/2000/svg" xmlns:xlink="http://www.w3.org/1999/xlink" x="0px" y="0px"
	 viewBox="0 0 127 142" style="enable-background:new 0 0 127 142;" xml:space="preserve">
<style type="text/css">
	.st0{filter:url(#Adobe_OpacityMaskFilter);}
	.st1{fill:#FFFFFF;}
	.st2{mask:url(#mask-2);}
</style>
<title>winter icon</title>
<desc>Created with Sketch.</desc>
<g id="Kiosk">
	<g id="for-export" transform="translate(-1419.000000, -104.000000)">
		<g id="winter-icon" transform="translate(1419.000000, 104.000000)">
			<path id="Fill-1" d="M38.8,87.5c5.5-6.6,11-13,16.5-19.5c-1.1-2.8-2.3-5.6-3.4-8.4c-1.1-2.8-2.3-5.6-3.5-8.5
				c-2.1,1.6-4,3.1-5.9,4.5C32,63.5,36.3,62.1,23,62.3c-1,0-2.1,0-3.6,0C26.1,71,32.3,79.2,38.8,87.5 M8.2,47.2
				c5.9,0,11.4-0.2,16.9,0.1c2.7,0.1,5.3-0.8,7.4-2.5c6-4.8,12.1-9.3,18.2-14c6.9-5.2,15.3-3.2,18.7,4.7c3.8,8.8,7.6,17.6,10.8,26.7
				c1.1,3.2,0.6,7,0.3,10.5c-0.5,7.4-1.3,14.9-2,22.4c5.9,5.4,11.8,10.9,17.5,16.1c-3.5,3.5-6.9,6.8-10.5,10.4
				c-0.3-0.3-0.9-0.7-1.5-1.3c-5.2-4.8-10.3-9.9-15.8-14.4c-3.8-3.1-5.3-6.8-5.3-11.5c0-2.6-0.4-5.2-0.7-7.6
				c-4.5,4.3-8.9,8.5-13.4,12.8c5,6.4,9.9,12.8,14.9,19.1c2.2,2.8,4.3,5.6,6.5,8.3c1.4,1.8,1.4,3.3,0,4.2c-1.7,1.1-2.9,0.3-4-1.1
				c-6.2-8-12.5-16.1-18.7-24.1c-0.4-0.5-0.7-0.9-1.4-1.7v23.7h-15v-2.3c0-8,0.1-16-0.1-24c-0.1-3.7,0.8-6.8,3.5-9.3
				c0.5-0.4,0.8-1,1.3-1.6c-7.6-9.7-15.1-19.4-22.5-28.9c-7.7-0.9-10.4-4.4-8.5-10.9c-1.2-1.6-2.6-3.4-3.9-5.1
				c-1.1-1.3-1.4-2.7,0-3.9c1.3-1.1,2.6-0.8,4,1C6.2,44.6,7.4,46.2,8.2,47.2"/>
			<path id="Fill-3" d="M31.4,12.8C31.4,5.6,37.1,0,44.3,0c7.1,0,12.9,5.9,12.8,12.9c-0.1,7-6,12.9-13,12.8
				C37,25.7,31.4,19.9,31.4,12.8"/>
			<g id="Group-7" transform="translate(5.000000, 130.178000)">
				<path id="Fill-5" d="M30.8,11c-5.4,0-10.9,0-16.4,0C9.9,11,6,9.2,2.3,6.8c-1.7-1.1-2.1-3.4-1-5c1.1-1.6,3.3-2.3,4.9-1.2
					c3.8,2.6,7.9,3.1,12.4,3c9.4-0.2,18.8,0,28.2,0c3.9,0,5.7,1.2,5.6,3.7c-0.1,2.5-1.9,3.7-5.8,3.7H30.8z"/>
			</g>
			<path id="Fill-8" d="M78.7,140.5c-2.3-0.1-3.6-1.1-3.9-3c-0.4-1.9,0.3-3.8,2.3-4.1c5.6-0.9,9.1-4.8,12.8-8.5
				c6.3-6.4,12.7-12.8,19.1-19.1c1.8-1.8,3.5-2.1,5.2-0.9c2,1.4,2.2,3.9,0.3,5.9c-3.1,3.2-6.3,6.3-9.5,9.5
				c-4.9,4.9-9.7,9.7-14.6,14.6C87.1,138.1,82.9,139.6,78.7,140.5"/>
			<g id="Group-12" transform="translate(119.000000, 115.178000)">
				<g id="Clip-11">
				</g>
				<defs>
					<filter id="Adobe_OpacityMaskFilter" filterUnits="userSpaceOnUse" x="0.2" y="0.7" width="7.4" height="7.4">
						<feColorMatrix  type="matrix" values="1 0 0 0 0  0 1 0 0 0  0 0 1 0 0  0 0 0 1 0"/>
					</filter>
				</defs>
				<mask maskUnits="userSpaceOnUse" x="0.2" y="0.7" width="7.4" height="7.4" id="mask-2">
					<g class="st0">
						<polygon id="path-1" class="st1" points="7.6,0.7 7.6,8.1 0.2,8.1 0.2,0.7 						"/>
					</g>
				</mask>
				<path id="Fill-10" class="st2" d="M4,8.1c-2.1,0-3.8-1.6-3.8-3.6c0-2,1.8-3.7,3.7-3.8c2,0,3.7,1.7,3.7,3.7
					C7.6,6.6,6.1,8.1,4,8.1"/>
			</g>
			<path id="Fill-13" d="M125.8,102.1c0,1.9-1.4,3.2-2.9,3.2c-1.5,0-2.9-1.4-2.9-2.9c0-1.6,1.4-3,3-2.9
				C124.8,99.7,125.7,100.7,125.8,102.1"/>
		</g>
	</g>
</g>
</svg>
